<svg xmlns="http://www.w3.org/2000/svg" width="512" height="512" viewBox="0 0 512 512" version="1.1">
	<path d="M 5.873 3.684 C 4.428 4.580, 2.515 6.550, 1.623 8.061 C 0.138 10.575, 0 31.221, 0.004 251.154 C 0.007 487.768, 0.038 491.550, 1.960 494.701 C 6.109 501.507, -9.346 500.998, 193.700 501.022 C 375.760 501.044, 377.542 501.063, 381.939 503.058 C 394.813 508.898, 417.155 511.526, 433.013 509.066 C 462.717 504.457, 488.750 484.959, 502.591 456.954 C 506.167 449.718, 510.843 434.933, 511.229 429.638 C 511.355 427.912, 511.702 441.125, 512 459 C 512.298 476.875, 512.534 382.825, 512.525 250 L 512.507 8.500 512 207 C 511.721 316.175, 511.382 404.088, 511.246 402.362 C 510.761 396.177, 505.817 381.462, 501.257 372.635 C 496.233 362.907, 487.003 350.562, 482.193 347.137 C 477.302 343.654, 472.856 344.630, 470.108 349.788 C 468.392 353.008, 469.531 355.682, 475.311 362 C 480.679 367.868, 486.891 376.908, 488.917 381.800 C 490.061 384.562, 489.895 385.121, 486.661 389.357 C 475.039 404.583, 475.490 429.544, 487.648 443.993 L 490.391 447.253 487.168 453.377 C 472.462 481.318, 440.288 497.950, 408.568 494.008 C 383.131 490.848, 360.433 475.417, 348.850 453.412 L 345.646 447.323 348.777 443.412 C 360.609 428.632, 360.609 403.368, 348.777 388.588 L 345.646 384.677 348.850 378.588 C 360.664 356.145, 383.465 340.919, 409.909 337.816 C 421.604 336.444, 431.860 337.561, 443.523 341.476 C 447.658 342.864, 451.820 343.986, 452.771 343.968 C 457.119 343.888, 460.665 337.880, 458.980 333.447 C 456.929 328.053, 440.998 323.154, 422.750 322.305 L 410 321.713 410 270.622 L 410 219.532 450.500 178.988 L 491 138.443 491 132.976 L 491 127.510 465.193 101.755 L 439.386 76 434.148 76 L 428.910 76 419.455 85.147 L 410 94.294 410 77.081 C 410 67.614, 409.567 59.060, 409.038 58.071 C 408.509 57.083, 406.709 55.708, 405.038 55.016 C 402.001 53.758, 402 53.755, 402 45.500 C 402 37.245, 402.001 37.242, 405.038 35.984 C 406.709 35.292, 408.509 33.917, 409.038 32.929 C 409.567 31.940, 410 26.559, 410 20.970 C 410 9.756, 408.880 6.542, 403.960 3.636 C 401.422 2.136, 384.841 2.002, 204.846 2.027 C 25.102 2.051, 8.278 2.191, 5.873 3.684 M 0.492 251 C 0.492 383.825, 0.608 438.163, 0.750 371.750 C 0.892 305.338, 0.892 196.663, 0.750 130.250 C 0.608 63.838, 0.492 118.175, 0.492 251 M 50 166.017 L 50 191.035 74.750 190.767 L 99.500 190.500 99.767 165.750 L 100.035 141 75.017 141 L 50 141 50 166.017 M 115 166 L 115 191 140 191 L 165 191 165 166 L 165 141 140 141 L 115 141 115 166 M 245 166 L 245 191 270 191 L 295 191 295 166 L 295 141 270 141 L 245 141 245 166 M 310 165.531 C 310 187.081, 310.194 190.137, 311.598 190.676 C 313.568 191.432, 360 145.465, 360 142.758 C 360 141.128, 358.186 141, 335 141 L 310 141 310 165.531 M 50 231 L 50 256 75 256 L 100 256 100 231 L 100 206 75 206 L 50 206 50 231 M 115 231 L 115 256 140 256 L 165 256 165 231 L 165 206 140 206 L 115 206 115 231 M 180 231 L 180 256 205 256 L 230 256 230 231 L 230 206 205 206 L 180 206 180 231 M 245 231 L 245 256 256.500 256 L 268 256 268 252.950 C 268 248.984, 269.975 245.321, 274.415 241.054 C 277.452 238.135, 278 236.942, 278 233.254 C 278 227.417, 279.581 224.752, 287.926 216.527 C 298.939 205.671, 299.499 206, 270 206 L 245 206 245 231 M 50 296 L 50 321 75 321 L 100 321 100 296 L 100 271 75 271 L 50 271 50 296 M 115 296 L 115 321 140 321 L 165 321 165 296 L 165 271 140 271 L 115 271 115 296 M 180 296 L 180 321 205 321 L 230 321 230 296 L 230 271 205 271 L 180 271 180 296 M 245 296 L 245 321 270 321 L 295 321 295 315.477 L 295 309.954 292.582 311.539 C 289.790 313.367, 283.629 313.661, 280 312.139 C 278.625 311.562, 271.650 307.340, 264.500 302.757 C 254.235 296.177, 251.115 293.644, 249.670 290.716 C 247.152 285.616, 248.211 281.758, 253.753 275.833 L 258.274 271 251.637 271 L 245 271 245 296 M 349.978 279.522 C 341.344 288.201, 337.706 290.240, 332.599 289.264 C 330.444 288.852, 328.957 289.696, 324.623 293.795 C 320.352 297.835, 318.375 298.971, 314.648 299.530 L 310 300.227 310 310.614 L 310 321 335 321 L 360 321 360 296 C 360 282.250, 359.653 271, 359.228 271 C 358.803 271, 354.641 274.835, 349.978 279.522 M 133.994 273.934 C 125.692 276.459, 119.837 282.313, 117.471 290.451 C 114.172 301.801, 119.559 312.740, 131 317.919 C 149.411 326.253, 169.497 305.902, 161.103 287.419 C 156.418 277.105, 143.953 270.905, 133.994 273.934 M 134.174 291.314 C 128.298 297.570, 135.258 306.524, 143.529 303.350 C 146.192 302.329, 147.951 297.158, 146.780 293.799 C 144.964 288.591, 138.019 287.222, 134.174 291.314 M 50 361.500 L 50 386 75 386 L 100 386 100 361.500 L 100 337 75 337 L 50 337 50 361.500 M 115 361.500 L 115 386 140 386 L 165 386 165 361.500 L 165 337 140 337 L 115 337 115 361.500 M 180 361.500 L 180 386 205 386 L 230 386 230 361.500 L 230 337 205 337 L 180 337 180 361.500 M 245 361.500 L 245 386 270 386 L 295 386 295 361.500 L 295 337 270 337 L 245 337 245 361.500 M 310 361.500 L 310 386 319.250 385.988 L 328.500 385.975 331.237 379.211 C 335.246 369.305, 343.332 357.562, 352.202 348.768 C 364.409 336.664, 364.900 337, 335 337 L 310 337 310 361.500 M 404.124 362.578 C 380.330 368.977, 363 391.490, 363 416 C 363 441.023, 380.905 463.759, 405.103 469.463 C 424.169 473.957, 442.587 468.645, 456.600 454.611 C 478.565 432.612, 478.565 399.388, 456.600 377.389 C 445.408 366.180, 432.801 360.936, 417.356 361.066 C 413.035 361.102, 407.081 361.782, 404.124 362.578 M 115 426.361 L 115 450.721 120.106 451.326 C 125.697 451.988, 127.754 453.222, 129.079 456.709 C 129.899 458.864, 130.487 459, 139 459 C 147.513 459, 148.101 458.864, 148.921 456.709 C 150.312 453.050, 152.520 451.854, 158.963 451.270 L 165 450.722 165 426.361 L 165 402 140 402 L 115 402 115 426.361 M 180 426.500 L 180 451 205 451 L 230 451 230 426.500 L 230 402 205 402 L 180 402 180 426.500 M 245 426.500 L 245 451 270 451 L 295 451 295 426.500 L 295 402 270 402 L 245 402 245 426.500 M 310 426.500 L 310 451 320.117 451 C 329.302 451, 330.181 450.839, 329.664 449.250 C 324.931 434.697, 324.740 433.507, 324.620 417.753 L 324.500 402.006 317.250 402.003 L 310 402 310 426.500 M 408.590 403.627 C 407.357 406.840, 409.875 408, 418.087 408 C 424.547 408, 426.088 407.691, 426.830 406.250 C 428.655 402.702, 427.200 402, 418.024 402 C 410.810 402, 409.101 402.295, 408.590 403.627 M 260.168 405.603 C 242.617 414.350, 242.806 438.086, 260.500 447.246 C 265.461 449.814, 273.900 449.968, 279.500 447.591 C 288.163 443.915, 293.302 436.107, 293.382 426.500 C 293.526 408.989, 275.780 397.824, 260.168 405.603 M 268.354 418.766 C 262.742 419.670, 260.779 427.853, 265.189 431.961 C 271.603 437.937, 281.216 429.877, 277.021 422.039 C 275.892 419.930, 271.479 418.263, 268.354 418.766 M 409.105 425.373 C 408.478 426.129, 408.246 427.479, 408.590 428.373 C 409.101 429.705, 410.810 430, 418.024 430 C 427.200 430, 428.655 429.298, 426.830 425.750 C 426.088 424.309, 424.547 424, 418.087 424 C 412.658 424, 409.894 424.423, 409.105 425.373" stroke="none" fill="black" fill-rule="evenodd"/>
</svg>